<?xml version="1.0" standalone="no"?><!DOCTYPE svg PUBLIC "-//W3C//DTD SVG 1.1//EN" "http://www.w3.org/Graphics/SVG/1.1/DTD/svg11.dtd"><svg t="1614652044446" class="icon" viewBox="0 0 1024 1024" version="1.1" xmlns="http://www.w3.org/2000/svg" p-id="3455" xmlns:xlink="http://www.w3.org/1999/xlink" width="200" height="200"><defs><style type="text/css"></style></defs><path d="M440.6656 588.90773333a32.53333333 32.53333333 0 0 1-23.08266667-9.57333333c-76.34986667-76.34986667-76.34986667-200.63253333 0-277.00266667l138.272-138.25173333c36.99093333-37.01226667 86.18453333-57.42293333 138.51093334-57.42293333 52.3072 0 101.48053333 20.41066667 138.51306666 57.42293333 76.3712 76.352 76.3712 200.63253333 0 277.00266667l-69.2864 69.2672c-12.74453333 12.74453333-33.3984 12.74453333-46.12266666 0-12.78613333-12.76586667-12.78613333-33.41866667 0-46.16426667l69.2448-69.24693333c50.92053333-50.92053333 50.92053333-133.77493333 0-184.6752-49.37493333-49.376-135.34186667-49.376-184.69546667 0l-138.272 138.21013333c-50.8992 50.92053333-50.8992 133.79626667 0 184.71573333 12.74773333 12.74453333 12.74773333 33.3984 0 46.144-6.36266667 6.384-14.7328 9.5744-23.0816 9.5744" fill="#707070" p-id="3456"></path><path d="M302.57386667 890.11733333c-50.11626667 0-100.31573333-19.06666667-138.47146667-57.26293333-37.00906667-37.01226667-57.40266667-86.18666667-57.40266667-138.51306667s20.39253333-101.51893333 57.40266667-138.49173333l69.22666667-69.2448c12.76586667-12.76586667 33.44-12.76586667 46.18453333 0 12.74453333 12.74453333 12.74453333 33.3984 0 46.144l-69.24693333 69.24693333c-24.66773333 24.68586667-38.25493333 57.4432-38.25493334 92.34666667 0 34.864 13.5872 67.6608 38.25493334 92.36906667 50.8608 50.8608 133.73653333 50.8608 184.67733333 0l138.2496-138.272c50.9216-50.92053333 50.9216-133.75466667 0-184.656-12.74453333-12.76586667-12.74453333-33.43786667 0-46.1824 12.74666667-12.76586667 33.3984-12.76586667 46.16426667 0 76.352 76.34986667 76.352 200.63253333 0 276.9824l-138.22933334 138.272c-38.2176 38.1952-88.39573333 57.26186667-138.55466666 57.26186666" fill="#707070" p-id="3457"></path></svg>